<svg height="32pt" viewBox="0 0 32 32" width="32pt" xmlns="http://www.w3.org/2000/svg"><path d="m19.523438 16 11.964843-11.964844c.328125-.328125.511719-.769531.511719-1.238281s-.179688-.90625-.511719-1.238281l-1.046875-1.046875c-.332031-.328125-.769531-.511719-1.238281-.511719s-.910156.183594-1.238281.511719l-11.964844 11.964843-11.964844-11.964843c-.328125-.328125-.769531-.511719-1.238281-.511719s-.90625.183594-1.234375.511719l-1.050781 1.046875c-.683594.683594-.683594 1.792968 0 2.476562l11.964843 11.964844-11.964843 11.964844c-.328125.328125-.511719.769531-.511719 1.238281s.183594.90625.511719 1.238281l1.050781 1.046875c.328125.328125.765625.511719 1.234375.511719s.910156-.183594 1.238281-.511719l11.964844-11.964843 11.964844 11.964843c.328125.328125.769531.511719 1.238281.511719s.90625-.183594 1.238281-.511719l1.046875-1.046875c.328125-.332031.511719-.769531.511719-1.238281s-.183594-.910156-.511719-1.238281zm0 0" fill="#4a4a4a"/></svg>