<svg height="32pt" viewBox="0 0 32 32" width="32pt" xmlns="http://www.w3.org/2000/svg"><g fill="#4a4a4a"><path d="m31.84375.15625c-.207031-.2070312-.546875-.2070312-.753906 0l-10.132813 10.132812c-.210937.210938-.210937.546876 0 .753907.101563.105469.238281.15625.375.15625s.273438-.050781.378907-.15625l10.132812-10.132813c.207031-.207031.207031-.546875 0-.753906zm0 0"/><path d="m31.464844 0h-6.929688c-.296875 0-.535156.238281-.535156.535156 0 .292969.238281.53125.535156.53125h6.398438v6.398438c0 .296875.238281.535156.53125.535156.296875 0 .535156-.238281.535156-.535156v-6.929688c0-.296875-.238281-.535156-.535156-.535156zm0 0"/><path d="m11.042969 20.957031c-.207031-.210937-.546875-.210937-.753907 0l-10.132812 10.132813c-.2070312.207031-.2070312.546875 0 .753906.105469.105469.242188.15625.378906.15625.136719 0 .269532-.050781.375-.15625l10.132813-10.132812c.210937-.210938.210937-.546876 0-.753907zm0 0"/><path d="m7.464844 30.933594h-6.398438v-6.398438c0-.296875-.238281-.535156-.53125-.535156-.296875 0-.535156.238281-.535156.535156v6.929688c0 .296875.238281.535156.535156.535156h6.929688c.296875 0 .535156-.238281.535156-.535156 0-.292969-.238281-.53125-.535156-.53125zm0 0"/><path d="m19.734375 11.734375h-7.46875c-.292969 0-.53125.238281-.53125.53125v7.46875c0 .292969.238281.53125.53125.53125h7.46875c.292969 0 .53125-.238281.53125-.53125v-7.46875c0-.292969-.238281-.53125-.53125-.53125zm-.535156 7.464844h-6.398438v-6.398438h6.398438zm0 0"/><path d="m31.84375 31.089844-10.132812-10.132813c-.207032-.210937-.546876-.210937-.753907 0-.210937.207031-.210937.542969 0 .753907l10.132813 10.132812c.105468.105469.238281.15625.375.15625.136718 0 .273437-.050781.378906-.15625.207031-.207031.207031-.546875 0-.753906zm0 0"/><path d="m31.464844 24c-.292969 0-.53125.238281-.53125.535156v6.398438h-6.398438c-.296875 0-.535156.238281-.535156.53125 0 .296875.238281.535156.535156.535156h6.929688c.296875 0 .535156-.238281.535156-.535156v-6.929688c0-.296875-.238281-.535156-.535156-.535156zm0 0"/><path d="m11.042969 10.289062-10.132813-10.132812c-.207031-.2070312-.546875-.2070312-.753906 0-.2070312.207031-.2070312.546875 0 .753906l10.132812 10.132813c.105469.105469.242188.15625.378907.15625s.273437-.050781.375-.15625c.210937-.207031.210937-.542969 0-.753907zm0 0"/><path d="m7.464844 0h-6.929688c-.296875 0-.535156.238281-.535156.535156v6.933594c0 .292969.238281.53125.535156.53125.292969 0 .53125-.238281.53125-.53125v-6.402344h6.398438c.296875 0 .535156-.238281.535156-.53125 0-.296875-.238281-.535156-.535156-.535156zm0 0"/></g></svg>
