<?xml version="1.0" encoding="UTF-8"?>
<svg xmlns="http://www.w3.org/2000/svg" xmlns:xlink="http://www.w3.org/1999/xlink" width="32pt" height="32pt" viewBox="0 0 32 32" version="1.1">
<g id="surface1">
<path style=" stroke:none;fill-rule:nonzero;fill:rgb(93.333333%,93.333333%,93.333333%);fill-opacity:1;" d="M 31.84375 0.15625 C 31.636719 -0.0507812 31.296875 -0.0507812 31.089844 0.15625 L 20.957031 10.289062 C 20.746094 10.5 20.746094 10.835938 20.957031 11.042969 C 21.058594 11.148438 21.195312 11.199219 21.332031 11.199219 C 21.46875 11.199219 21.605469 11.148438 21.710938 11.042969 L 31.84375 0.910156 C 32.050781 0.703125 32.050781 0.363281 31.84375 0.15625 Z M 31.84375 0.15625 "/>
<path style=" stroke:none;fill-rule:nonzero;fill:rgb(93.333333%,93.333333%,93.333333%);fill-opacity:1;" d="M 31.464844 0 L 24.535156 0 C 24.238281 0 24 0.238281 24 0.535156 C 24 0.828125 24.238281 1.066406 24.535156 1.066406 L 30.933594 1.066406 L 30.933594 7.464844 C 30.933594 7.761719 31.171875 8 31.464844 8 C 31.761719 8 32 7.761719 32 7.464844 L 32 0.535156 C 32 0.238281 31.761719 0 31.464844 0 Z M 31.464844 0 "/>
<path style=" stroke:none;fill-rule:nonzero;fill:rgb(93.333333%,93.333333%,93.333333%);fill-opacity:1;" d="M 11.042969 20.957031 C 10.835938 20.746094 10.496094 20.746094 10.289062 20.957031 L 0.15625 31.089844 C -0.0507812 31.296875 -0.0507812 31.636719 0.15625 31.84375 C 0.261719 31.949219 0.398438 32 0.535156 32 C 0.671875 32 0.804688 31.949219 0.910156 31.84375 L 11.042969 21.710938 C 11.253906 21.5 11.253906 21.164062 11.042969 20.957031 Z M 11.042969 20.957031 "/>
<path style=" stroke:none;fill-rule:nonzero;fill:rgb(93.333333%,93.333333%,93.333333%);fill-opacity:1;" d="M 7.464844 30.933594 L 1.066406 30.933594 L 1.066406 24.535156 C 1.066406 24.238281 0.828125 24 0.535156 24 C 0.238281 24 0 24.238281 0 24.535156 L 0 31.464844 C 0 31.761719 0.238281 32 0.535156 32 L 7.464844 32 C 7.761719 32 8 31.761719 8 31.464844 C 8 31.171875 7.761719 30.933594 7.464844 30.933594 Z M 7.464844 30.933594 "/>
<path style=" stroke:none;fill-rule:nonzero;fill:rgb(93.333333%,93.333333%,93.333333%);fill-opacity:1;" d="M 19.734375 11.734375 L 12.265625 11.734375 C 11.972656 11.734375 11.734375 11.972656 11.734375 12.265625 L 11.734375 19.734375 C 11.734375 20.027344 11.972656 20.265625 12.265625 20.265625 L 19.734375 20.265625 C 20.027344 20.265625 20.265625 20.027344 20.265625 19.734375 L 20.265625 12.265625 C 20.265625 11.972656 20.027344 11.734375 19.734375 11.734375 Z M 19.199219 19.199219 L 12.800781 19.199219 L 12.800781 12.800781 L 19.199219 12.800781 Z M 19.199219 19.199219 "/>
<path style=" stroke:none;fill-rule:nonzero;fill:rgb(93.333333%,93.333333%,93.333333%);fill-opacity:1;" d="M 31.84375 31.089844 L 21.710938 20.957031 C 21.503906 20.746094 21.164062 20.746094 20.957031 20.957031 C 20.746094 21.164062 20.746094 21.5 20.957031 21.710938 L 31.089844 31.84375 C 31.195312 31.949219 31.328125 32 31.464844 32 C 31.601562 32 31.738281 31.949219 31.84375 31.84375 C 32.050781 31.636719 32.050781 31.296875 31.84375 31.089844 Z M 31.84375 31.089844 "/>
<path style=" stroke:none;fill-rule:nonzero;fill:rgb(93.333333%,93.333333%,93.333333%);fill-opacity:1;" d="M 31.464844 24 C 31.171875 24 30.933594 24.238281 30.933594 24.535156 L 30.933594 30.933594 L 24.535156 30.933594 C 24.238281 30.933594 24 31.171875 24 31.464844 C 24 31.761719 24.238281 32 24.535156 32 L 31.464844 32 C 31.761719 32 32 31.761719 32 31.464844 L 32 24.535156 C 32 24.238281 31.761719 24 31.464844 24 Z M 31.464844 24 "/>
<path style=" stroke:none;fill-rule:nonzero;fill:rgb(93.333333%,93.333333%,93.333333%);fill-opacity:1;" d="M 11.042969 10.289062 L 0.910156 0.15625 C 0.703125 -0.0507812 0.363281 -0.0507812 0.15625 0.15625 C -0.0507812 0.363281 -0.0507812 0.703125 0.15625 0.910156 L 10.289062 11.042969 C 10.394531 11.148438 10.53125 11.199219 10.667969 11.199219 C 10.804688 11.199219 10.941406 11.148438 11.042969 11.042969 C 11.253906 10.835938 11.253906 10.5 11.042969 10.289062 Z M 11.042969 10.289062 "/>
<path style=" stroke:none;fill-rule:nonzero;fill:rgb(93.333333%,93.333333%,93.333333%);fill-opacity:1;" d="M 7.464844 0 L 0.535156 0 C 0.238281 0 0 0.238281 0 0.535156 L 0 7.46875 C 0 7.761719 0.238281 8 0.535156 8 C 0.828125 8 1.066406 7.761719 1.066406 7.46875 L 1.066406 1.066406 L 7.464844 1.066406 C 7.761719 1.066406 8 0.828125 8 0.535156 C 8 0.238281 7.761719 0 7.464844 0 Z M 7.464844 0 "/>
</g>
</svg>
