<svg height="32pt" viewBox="0 0 32 32" width="32pt" xmlns="http://www.w3.org/2000/svg"><path d="m24.890625 14.75-14.242187-14.238281c-.328126-.332031-.769532-.511719-1.238282-.511719s-.90625.179688-1.238281.511719l-1.046875 1.046875c-.683594.683594-.683594 1.792968 0 2.476562l11.957031 11.957032-11.96875 11.972656c-.332031.328125-.511719.769531-.511719 1.238281s.179688.90625.511719 1.238281l1.046875 1.046875c.328125.332031.769532.511719 1.238282.511719s.90625-.179688 1.238281-.511719l14.253906-14.253906c.328125-.328125.511719-.769531.507813-1.238281.003906-.472656-.179688-.914063-.507813-1.246094zm0 0" fill="#4a4a4a"/></svg>